<svg xmlns="http://www.w3.org/2000/svg" xmlns:xlink="http://www.w3.org/1999/xlink" width="288" zoomAndPan="magnify" viewBox="0 0 216 72" height="96" preserveAspectRatio="xMidYMid meet" version="1.0"><defs><g/></defs><g fill="#000000" fill-opacity="1"><g transform="translate(21.994092, 50.112067)"><g><path d="M 6.90625 -18.34375 C 7.675781 -19.6875 8.800781 -20.78125 10.28125 -21.625 C 11.757812 -22.476562 13.445312 -22.90625 15.34375 -22.90625 C 17.375 -22.90625 19.195312 -22.425781 20.8125 -21.46875 C 22.425781 -20.507812 23.695312 -19.160156 24.625 -17.421875 C 25.5625 -15.679688 26.03125 -13.65625 26.03125 -11.34375 C 26.03125 -9.070312 25.5625 -7.046875 24.625 -5.265625 C 23.695312 -3.484375 22.414062 -2.097656 20.78125 -1.109375 C 19.15625 -0.117188 17.34375 0.375 15.34375 0.375 C 13.394531 0.375 11.6875 -0.046875 10.21875 -0.890625 C 8.75 -1.742188 7.644531 -2.832031 6.90625 -4.15625 L 6.90625 0 L 3.171875 0 L 3.171875 -30.4375 L 6.90625 -30.4375 Z M 22.203125 -11.34375 C 22.203125 -13.050781 21.859375 -14.535156 21.171875 -15.796875 C 20.492188 -17.054688 19.570312 -18.015625 18.40625 -18.671875 C 17.238281 -19.328125 15.957031 -19.65625 14.5625 -19.65625 C 13.1875 -19.65625 11.914062 -19.316406 10.75 -18.640625 C 9.582031 -17.972656 8.648438 -17 7.953125 -15.71875 C 7.253906 -14.445312 6.90625 -12.976562 6.90625 -11.3125 C 6.90625 -9.613281 7.253906 -8.125 7.953125 -6.84375 C 8.648438 -5.570312 9.582031 -4.597656 10.75 -3.921875 C 11.914062 -3.253906 13.1875 -2.921875 14.5625 -2.921875 C 15.957031 -2.921875 17.238281 -3.253906 18.40625 -3.921875 C 19.570312 -4.597656 20.492188 -5.570312 21.171875 -6.84375 C 21.859375 -8.125 22.203125 -9.625 22.203125 -11.34375 Z M 22.203125 -11.34375 "/></g></g></g><g fill="#000000" fill-opacity="1"><g transform="translate(45.397808, 50.112067)"><g><path d="M 5.09375 -26.203125 C 4.382812 -26.203125 3.78125 -26.445312 3.28125 -26.9375 C 2.789062 -27.425781 2.546875 -28.03125 2.546875 -28.75 C 2.546875 -29.457031 2.789062 -30.054688 3.28125 -30.546875 C 3.78125 -31.046875 4.382812 -31.296875 5.09375 -31.296875 C 5.78125 -31.296875 6.363281 -31.046875 6.84375 -30.546875 C 7.320312 -30.054688 7.5625 -29.457031 7.5625 -28.75 C 7.5625 -28.03125 7.320312 -27.425781 6.84375 -26.9375 C 6.363281 -26.445312 5.78125 -26.203125 5.09375 -26.203125 Z M 6.90625 -22.53125 L 6.90625 0 L 3.171875 0 L 3.171875 -22.53125 Z M 6.90625 -22.53125 "/></g></g></g><g fill="#000000" fill-opacity="1"><g transform="translate(51.115028, 50.112067)"><g><path d="M 13 0.375 C 10.882812 0.375 8.96875 -0.101562 7.25 -1.0625 C 5.539062 -2.03125 4.195312 -3.394531 3.21875 -5.15625 C 2.25 -6.925781 1.765625 -8.976562 1.765625 -11.3125 C 1.765625 -13.613281 2.265625 -15.644531 3.265625 -17.40625 C 4.265625 -19.175781 5.628906 -20.535156 7.359375 -21.484375 C 9.085938 -22.429688 11.019531 -22.90625 13.15625 -22.90625 C 15.300781 -22.90625 17.234375 -22.429688 18.953125 -21.484375 C 20.679688 -20.535156 22.046875 -19.1875 23.046875 -17.4375 C 24.046875 -15.6875 24.546875 -13.644531 24.546875 -11.3125 C 24.546875 -8.976562 24.03125 -6.925781 23 -5.15625 C 21.976562 -3.394531 20.585938 -2.03125 18.828125 -1.0625 C 17.078125 -0.101562 15.132812 0.375 13 0.375 Z M 13 -2.921875 C 14.34375 -2.921875 15.601562 -3.234375 16.78125 -3.859375 C 17.957031 -4.492188 18.910156 -5.441406 19.640625 -6.703125 C 20.367188 -7.960938 20.734375 -9.5 20.734375 -11.3125 C 20.734375 -13.125 20.375 -14.660156 19.65625 -15.921875 C 18.945312 -17.179688 18.015625 -18.117188 16.859375 -18.734375 C 15.710938 -19.347656 14.46875 -19.65625 13.125 -19.65625 C 11.75 -19.65625 10.492188 -19.347656 9.359375 -18.734375 C 8.222656 -18.117188 7.3125 -17.179688 6.625 -15.921875 C 5.9375 -14.660156 5.59375 -13.125 5.59375 -11.3125 C 5.59375 -9.46875 5.925781 -7.914062 6.59375 -6.65625 C 7.269531 -5.394531 8.171875 -4.457031 9.296875 -3.84375 C 10.421875 -3.226562 11.65625 -2.921875 13 -2.921875 Z M 13 -2.921875 "/></g></g></g><g fill="#000000" fill-opacity="1"><g transform="translate(73.038015, 50.112067)"><g><path d="M 12.25 0.28125 C 10.363281 0.28125 8.671875 -0.0507812 7.171875 -0.71875 C 5.679688 -1.394531 4.507812 -2.328125 3.65625 -3.515625 C 2.8125 -4.710938 2.375 -6.09375 2.34375 -7.65625 L 6.328125 -7.65625 C 6.460938 -6.3125 7.015625 -5.175781 7.984375 -4.25 C 8.960938 -3.332031 10.382812 -2.875 12.25 -2.875 C 14.03125 -2.875 15.4375 -3.316406 16.46875 -4.203125 C 17.5 -5.097656 18.015625 -6.25 18.015625 -7.65625 C 18.015625 -8.75 17.710938 -9.632812 17.109375 -10.3125 C 16.503906 -11 15.75 -11.519531 14.84375 -11.875 C 13.9375 -12.238281 12.71875 -12.625 11.1875 -13.03125 C 9.289062 -13.53125 7.773438 -14.023438 6.640625 -14.515625 C 5.503906 -15.003906 4.53125 -15.773438 3.71875 -16.828125 C 2.914062 -17.890625 2.515625 -19.3125 2.515625 -21.09375 C 2.515625 -22.65625 2.910156 -24.039062 3.703125 -25.25 C 4.492188 -26.457031 5.609375 -27.390625 7.046875 -28.046875 C 8.492188 -28.703125 10.148438 -29.03125 12.015625 -29.03125 C 14.691406 -29.03125 16.882812 -28.359375 18.59375 -27.015625 C 20.3125 -25.671875 21.285156 -23.890625 21.515625 -21.671875 L 17.390625 -21.671875 C 17.253906 -22.765625 16.675781 -23.726562 15.65625 -24.5625 C 14.644531 -25.40625 13.304688 -25.828125 11.640625 -25.828125 C 10.078125 -25.828125 8.800781 -25.421875 7.8125 -24.609375 C 6.820312 -23.804688 6.328125 -22.675781 6.328125 -21.21875 C 6.328125 -20.175781 6.625 -19.328125 7.21875 -18.671875 C 7.8125 -18.015625 8.535156 -17.515625 9.390625 -17.171875 C 10.253906 -16.828125 11.46875 -16.4375 13.03125 -16 C 14.925781 -15.476562 16.445312 -14.960938 17.59375 -14.453125 C 18.75 -13.941406 19.738281 -13.160156 20.5625 -12.109375 C 21.382812 -11.054688 21.796875 -9.625 21.796875 -7.8125 C 21.796875 -6.414062 21.425781 -5.097656 20.6875 -3.859375 C 19.945312 -2.628906 18.847656 -1.628906 17.390625 -0.859375 C 15.941406 -0.0976562 14.226562 0.28125 12.25 0.28125 Z M 12.25 0.28125 "/></g></g></g><g fill="#000000" fill-opacity="1"><g transform="translate(92.781039, 50.112067)"><g><path d="M 6.90625 -18.390625 C 7.644531 -19.671875 8.75 -20.742188 10.21875 -21.609375 C 11.6875 -22.472656 13.394531 -22.90625 15.34375 -22.90625 C 17.34375 -22.90625 19.15625 -22.425781 20.78125 -21.46875 C 22.414062 -20.507812 23.695312 -19.160156 24.625 -17.421875 C 25.5625 -15.679688 26.03125 -13.65625 26.03125 -11.34375 C 26.03125 -9.070312 25.5625 -7.046875 24.625 -5.265625 C 23.695312 -3.484375 22.414062 -2.097656 20.78125 -1.109375 C 19.15625 -0.117188 17.34375 0.375 15.34375 0.375 C 13.414062 0.375 11.71875 -0.0546875 10.25 -0.921875 C 8.789062 -1.785156 7.675781 -2.863281 6.90625 -4.15625 L 6.90625 10.6875 L 3.171875 10.6875 L 3.171875 -22.53125 L 6.90625 -22.53125 Z M 22.203125 -11.34375 C 22.203125 -13.050781 21.859375 -14.535156 21.171875 -15.796875 C 20.492188 -17.054688 19.570312 -18.015625 18.40625 -18.671875 C 17.238281 -19.328125 15.957031 -19.65625 14.5625 -19.65625 C 13.1875 -19.65625 11.914062 -19.316406 10.75 -18.640625 C 9.582031 -17.972656 8.648438 -17 7.953125 -15.71875 C 7.253906 -14.445312 6.90625 -12.976562 6.90625 -11.3125 C 6.90625 -9.613281 7.253906 -8.125 7.953125 -6.84375 C 8.648438 -5.570312 9.582031 -4.597656 10.75 -3.921875 C 11.914062 -3.253906 13.1875 -2.921875 14.5625 -2.921875 C 15.957031 -2.921875 17.238281 -3.253906 18.40625 -3.921875 C 19.570312 -4.597656 20.492188 -5.570312 21.171875 -6.84375 C 21.859375 -8.125 22.203125 -9.625 22.203125 -11.34375 Z M 22.203125 -11.34375 "/></g></g></g><g fill="#000000" fill-opacity="1"><g transform="translate(116.184759, 50.112067)"><g><path d="M 14.359375 -22.953125 C 16.054688 -22.953125 17.585938 -22.585938 18.953125 -21.859375 C 20.328125 -21.128906 21.40625 -20.035156 22.1875 -18.578125 C 22.96875 -17.128906 23.359375 -15.363281 23.359375 -13.28125 L 23.359375 0 L 19.65625 0 L 19.65625 -12.75 C 19.65625 -15 19.09375 -16.71875 17.96875 -17.90625 C 16.84375 -19.101562 15.304688 -19.703125 13.359375 -19.703125 C 11.390625 -19.703125 9.820312 -19.082031 8.65625 -17.84375 C 7.488281 -16.613281 6.90625 -14.816406 6.90625 -12.453125 L 6.90625 0 L 3.171875 0 L 3.171875 -30.4375 L 6.90625 -30.4375 L 6.90625 -19.328125 C 7.644531 -20.484375 8.664062 -21.375 9.96875 -22 C 11.269531 -22.632812 12.734375 -22.953125 14.359375 -22.953125 Z M 14.359375 -22.953125 "/></g></g></g><g fill="#1a4b04" fill-opacity="1"><g transform="translate(138.111528, 50.112067)"><g><path d="M 2.46875 -22.25 C 2.65625 -24.769531 3.625 -26.742188 5.375 -28.171875 C 7.132812 -29.597656 9.414062 -30.3125 12.21875 -30.3125 C 14.082031 -30.3125 15.691406 -29.972656 17.046875 -29.296875 C 18.398438 -28.628906 19.425781 -27.71875 20.125 -26.5625 C 20.820312 -25.414062 21.171875 -24.113281 21.171875 -22.65625 C 21.171875 -20.957031 20.6875 -19.488281 19.71875 -18.25 C 18.75 -17.019531 17.484375 -16.226562 15.921875 -15.875 L 15.921875 -15.671875 C 17.703125 -15.234375 19.113281 -14.367188 20.15625 -13.078125 C 21.195312 -11.785156 21.71875 -10.097656 21.71875 -8.015625 C 21.71875 -6.453125 21.359375 -5.046875 20.640625 -3.796875 C 19.929688 -2.554688 18.863281 -1.578125 17.4375 -0.859375 C 16.007812 -0.148438 14.296875 0.203125 12.296875 0.203125 C 9.390625 0.203125 7.003906 -0.554688 5.140625 -2.078125 C 3.273438 -3.597656 2.234375 -5.753906 2.015625 -8.546875 L 5.640625 -8.546875 C 5.828125 -6.910156 6.492188 -5.570312 7.640625 -4.53125 C 8.796875 -3.488281 10.332031 -2.96875 12.25 -2.96875 C 14.175781 -2.96875 15.640625 -3.46875 16.640625 -4.46875 C 17.640625 -5.46875 18.140625 -6.757812 18.140625 -8.34375 C 18.140625 -10.40625 17.453125 -11.882812 16.078125 -12.78125 C 14.710938 -13.6875 12.644531 -14.140625 9.875 -14.140625 L 8.921875 -14.140625 L 8.921875 -17.265625 L 9.90625 -17.265625 C 12.425781 -17.296875 14.332031 -17.710938 15.625 -18.515625 C 16.914062 -19.328125 17.5625 -20.585938 17.5625 -22.296875 C 17.5625 -23.742188 17.085938 -24.90625 16.140625 -25.78125 C 15.191406 -26.65625 13.84375 -27.09375 12.09375 -27.09375 C 10.394531 -27.09375 9.023438 -26.65625 7.984375 -25.78125 C 6.941406 -24.90625 6.320312 -23.726562 6.125 -22.25 Z M 2.46875 -22.25 "/></g></g></g><g fill="#000000" fill-opacity="1"><g transform="translate(157.940874, 50.112067)"><g><path d="M 6.90625 -18.875 C 7.5625 -20.164062 8.5 -21.164062 9.71875 -21.875 C 10.945312 -22.59375 12.4375 -22.953125 14.1875 -22.953125 L 14.1875 -19.078125 L 13.203125 -19.078125 C 9.003906 -19.078125 6.90625 -16.800781 6.90625 -12.25 L 6.90625 0 L 3.171875 0 L 3.171875 -22.53125 L 6.90625 -22.53125 Z M 6.90625 -18.875 "/></g></g></g><g fill="#000000" fill-opacity="1"><g transform="translate(168.881782, 50.112067)"><g><path d="M 23.734375 -12.125 C 23.734375 -11.414062 23.691406 -10.664062 23.609375 -9.875 L 5.59375 -9.875 C 5.726562 -7.644531 6.488281 -5.90625 7.875 -4.65625 C 9.257812 -3.414062 10.9375 -2.796875 12.90625 -2.796875 C 14.53125 -2.796875 15.882812 -3.171875 16.96875 -3.921875 C 18.050781 -4.679688 18.8125 -5.691406 19.25 -6.953125 L 23.28125 -6.953125 C 22.675781 -4.785156 21.46875 -3.019531 19.65625 -1.65625 C 17.84375 -0.300781 15.59375 0.375 12.90625 0.375 C 10.769531 0.375 8.859375 -0.101562 7.171875 -1.0625 C 5.484375 -2.03125 4.160156 -3.394531 3.203125 -5.15625 C 2.242188 -6.925781 1.765625 -8.976562 1.765625 -11.3125 C 1.765625 -13.644531 2.226562 -15.6875 3.15625 -17.4375 C 4.09375 -19.1875 5.40625 -20.535156 7.09375 -21.484375 C 8.78125 -22.429688 10.71875 -22.90625 12.90625 -22.90625 C 15.050781 -22.90625 16.945312 -22.4375 18.59375 -21.5 C 20.238281 -20.570312 21.503906 -19.289062 22.390625 -17.65625 C 23.285156 -16.03125 23.734375 -14.1875 23.734375 -12.125 Z M 19.859375 -12.90625 C 19.859375 -14.332031 19.539062 -15.5625 18.90625 -16.59375 C 18.28125 -17.625 17.425781 -18.40625 16.34375 -18.9375 C 15.257812 -19.46875 14.0625 -19.734375 12.75 -19.734375 C 10.851562 -19.734375 9.238281 -19.128906 7.90625 -17.921875 C 6.582031 -16.722656 5.828125 -15.050781 5.640625 -12.90625 Z M 19.859375 -12.90625 "/></g></g></g>



</svg>